<svg width="1584" height="1584" version="1.1" xmlns="http://www.w3.org/2000/svg" desc="Created with imagetracer.js version 1.2.6" ><path fill="rgb(0,0,0)" stroke="rgb(0,0,0)" stroke-width="1" opacity="0" d="M 0 0 L 1584 0 L 1584 1584 L 0 1584 L 0 0 Z M 726 396 L 726 462 L 660 462 L 660 528 L 726 528 L 726 660 L 661 660 L 660 661 L 660 792 L 594 792 L 594 660 L 528 660 L 528 594 L 594 594 L 594 528 L 528 528 L 528 462 L 462 462 L 462 528 L 396 528 L 396 594 L 462 594 L 462 595 L 462 990 L 463 990 L 528 990 L 528 1056 L 1056 1056 L 1056 990 L 1122 990 L 1122 990 L 1122 595 L 1123 594 L 1188 594 L 1188 528 L 1122 528 L 1122 462 L 1056 462 L 1056 528 L 990 528 L 990 594 L 1056 594 L 1056 660 L 990 660 L 990 792 L 924 792 L 924 660 L 858 660 L 858 528 L 924 528 L 924 462 L 858 462 L 858 396 L 726 396 Z " /><path fill="rgb(0,0,0)" stroke="rgb(0,0,0)" stroke-width="1" opacity="1" d="M 726 396 L 858 396 L 858 462 L 924 462 L 924 528 L 858 528 L 858 660 L 924 660 L 924 792 L 990 792 L 990 660 L 1056 660 L 1056 594 L 990 594 L 990 528 L 1056 528 L 1056 462 L 1122 462 L 1122 528 L 1188 528 L 1188 594 L 1122.5 594 L 1122 594.5 L 1122 989.5 L 1121.5 990 L 1056 990 L 1056 1056 L 528 1056 L 528 990 L 462.5 990 L 462 989.5 L 462 594.5 L 461.5 594 L 396 594 L 396 528 L 462 528 L 462 462 L 528 462 L 528 528 L 594 528 L 594 594 L 528 594 L 528 660 L 594 660 L 594 792 L 660 792 L 660 660.5 L 660.5 660 L 726 660 L 726 528 L 660 528 L 660 462 L 726 462 L 726 396 Z " /></svg>